                                <svg version="1.1" id="Layer_1" xmlns="http://www.w3.org/2000/svg" xmlns:xlink="http://www.w3.org/1999/xlink" x="0px" y="0px"
	 viewBox="82.25 100.7 145.5 174.6" style="enable-background:new 0 0 145.5 174.6;" xml:space="preserve">
<style type="text/css">
	.seat-banner .maps svg{margin-top:50px;}
	.st0{fill:#dbeafe;stroke:#1e3a8a;stroke-width:1.2;stroke-miterlimit:10;cursor:pointer;transition:fill .15s ease,stroke .15s ease;}
	.st1{fill:#0f172a;font-weight:700;}
	.st2{font-size:30px;}
	.st3{font-size:10px;}
	.st4{fill:none;stroke:#BF0056;stroke-width:3;stroke-miterlimit:10;}
	a:hover .st0{fill:#93c5fd;stroke:#1d4ed8;}
	/* DNCC constituencies: Dhaka-11 to Dhaka-18 */
	#seat_184,#seat_185,#seat_186,#seat_187,#seat_188,#seat_189,#seat_190,#seat_191{stroke:#1d4ed8;stroke-width:2.2;}
	/* DSCC constituencies: Dhaka-2, Dhaka-4 to Dhaka-10 */
	#seat_175,#seat_177,#seat_178,#seat_179,#seat_180,#seat_181,#seat_182,#seat_183{stroke:#be123c;stroke-width:2.2;}
	/* Excluded from city-only view: Dhaka-1, Dhaka-3, Dhaka-19, Dhaka-20 */
	a[href="/constituency/174"],a[href="/constituency/176"],a[href="/constituency/192"],a[href="/constituency/193"]{display:none;}
</style>
<a href="/constituency/174">
<polyline id="seat_174" class="st0" points="143.5,248.7 143.5,250.1 142,250.1 142,251.6 143.5,251.6 143.5,260.2 142,260.2 139.1,260.2 
	139.1,261.6 137.7,261.6 137.7,263 137.7,267.3 136.3,267.3 136.3,268.7 134.9,268.7 133.4,268.7 133.4,270.1 132,270.1 132,271.6 
	130.6,271.6 130.6,273 130.6,280.2 129.2,280.2 129.2,283 127.7,283 126.3,283 126.3,284.4 124.8,284.4 124.8,285.9 122,285.9 
	122,287.3 120.6,287.3 120.6,288.7 120.6,291.6 119.1,291.6 119.1,293 120.6,293 120.6,297.3 119.1,297.3 119.1,300.1 117.7,300.1 
	117.7,301.6 116.3,301.6 114.9,301.6 113.4,303 112,303 112,304.5 110.5,304.5 110.5,303 109.1,303 109.1,301.6 107.7,301.6 
	107.7,303 107.7,304.5 106.3,304.5 106.3,305.9 104.8,305.9 103.4,305.9 103.4,307.3 103.4,308.7 104.8,308.7 104.8,313 106.3,313 
	106.3,315.9 104.8,315.9 104.8,317.3 103.4,317.3 103.4,318.8 104.8,318.8 104.8,320.2 103.4,320.2 104.8,320.2 103.4,320.2 
	103.4,324.5 102,324.5 102,325.9 102,324.5 100.6,324.5 100.6,323 99.1,323 99.1,324.5 96.3,324.5 96.3,325.9 94.9,325.9 
	93.4,327.3 93.4,325.9 92,324.5 90.5,321.6 89.1,318.8 89.1,315.9 87.7,314.4 86.3,313 86.3,311.6 83.4,310.2 82,307.3 82,303 
	80.6,303 80.6,301.6 79.2,301.6 79.2,300.1 77.7,300.1 66.3,300.1 66.3,298.7 57.7,298.7 57.7,300.1 54.8,300.1 54.8,301.6 
	52,301.6 52,303 49.1,303 49.1,301.6 47.7,301.6 47.7,300.1 44.8,300.1 44.8,298.7 40.5,298.7 40.5,297.3 37.7,297.3 37.7,295.9 
	33.4,295.9 33.4,294.4 31.9,294.4 31.9,293 33.4,293 33.4,291.6 36.3,291.6 36.3,290.2 36.3,288.7 34.8,288.7 34.8,287.3 
	33.4,287.3 31.9,287.3 31.9,285.9 30.5,285.9 30.5,284.4 29.1,284.4 29.1,283 27.7,283 27.7,281.6 27.7,274.5 29.1,274.5 29.1,273 
	30.5,273 31.9,273 31.9,271.6 31.9,270.1 30.5,270.1 30.5,267.3 29.1,267.3 29.1,264.4 30.5,263 22,263 22,261.6 14.8,261.6 
	14.8,260.2 10.5,260.2 9.1,258.7 9.1,253 10.5,253 10.5,251.6 11.9,251.6 13.4,251.6 13.4,250.1 14.8,250.1 14.8,248.7 16.2,248.7 
	16.2,247.3 16.2,237.3 14.8,237.3 16.2,237.3 16.2,235.8 19.1,235.8 20.5,237.3 20.5,234.4 22,234.4 22,231.6 23.4,231.6 
	23.4,230.1 24.8,231.6 24.8,230.1 26.2,230.1 26.2,228.7 24.8,228.7 24.8,225.9 26.2,225.9 26.2,221.5 26.2,223 29.1,223 
	29.1,221.5 27.7,221.5 27.7,220.1 26.2,220.1 26.2,218.7 27.7,218.7 27.7,217.3 27.7,215.8 29.1,215.8 29.1,211.6 30.5,211.6 
	30.5,213 31.9,213 31.9,211.6 33.4,211.6 33.4,210.2 34.8,210.2 34.8,204.4 33.4,204.4 33.4,203 34.8,203 37.7,203 37.7,204.4 
	42,204.4 42,203 44.8,203 44.8,204.4 43.4,204.4 44.8,204.4 44.8,205.8 46.2,205.8 47.7,205.8 47.7,207.3 47.7,208.7 47.7,207.3 
	49.1,207.3 49.1,208.7 50.6,208.7 50.6,207.3 50.6,203 52,203 52,201.6 53.4,201.6 66.3,201.6 66.3,203 63.4,203 63.4,204.4 
	64.9,204.4 64.9,205.8 64.9,208.7 64.9,207.3 64.9,208.7 64.9,207.3 66.3,208.7 70.6,208.7 70.6,207.3 70.6,205.8 72,205.8 
	70.6,205.8 70.6,204.4 72,204.4 72,203 73.4,203 73.4,201.6 73.4,200.1 74.8,200.1 74.8,198.7 76.3,198.7 77.7,198.7 77.7,197.3 
	79.2,197.3 79.2,195.9 80.6,195.9 80.6,194.4 82,193 82,191.5 83.4,191.5 86.3,191.5 86.3,190.1 89.1,190.1 89.1,191.5 89.1,190.1 
	90.5,190.1 92,190.1 92,191.5 92,194.4 93.4,194.4 93.4,197.3 92,197.3 92,198.7 90.5,198.7 92,198.7 92,200.1 92,203 93.4,203 
	93.4,204.4 94.9,204.4 96.3,204.4 96.3,203 103.4,203 103.4,204.4 106.3,204.4 106.3,205.8 109.1,205.8 109.1,207.3 109.1,208.7 
	110.5,208.7 110.5,205.8 112,205.8 114.9,205.8 114.9,204.4 116.3,204.4 116.3,205.8 117.7,205.8 117.7,204.4 117.7,203 119.1,203 
	120.6,203 120.6,204.4 122,204.4 122,205.8 123.4,205.8 123.4,207.3 123.4,208.7 124.8,208.7 124.8,211.6 126.3,211.6 126.3,213 
	127.7,213 130.6,213 130.6,214.4 130.6,213 130.6,214.4 130.6,213 132,213 133.4,213 133.4,211.6 136.3,211.6 136.3,210.2 
	147.7,210.2 147.7,211.6 149.2,211.6 147.7,211.6 149.2,211.6 149.2,213 150.6,213 150.6,214.4 150.6,215.8 152,215.8 152,217.3 
	153.4,217.3 153.4,220.1 154.9,220.1 154.9,221.5 156.3,221.5 156.3,223 157.7,223 157.7,225.9 159.2,225.9 159.2,228.7 
	160.6,228.7 160.6,231.6 162,231.6 162,233 163.4,233 163.4,234.4 164.9,234.4 164.9,235.8 163.4,235.8 163.4,237.3 162,237.3 
	162,238.7 160.6,238.7 160.6,240.2 159.2,240.2 159.2,241.6 157.7,241.6 157.7,243 156.3,243 156.3,245.9 154.9,247.3 154.9,248.7 
	153.4,248.7 153.4,247.3 152,247.3 152,245.9 150.6,245.9 150.6,247.3 149.2,247.3 143.5,247.3 143.5,248.7 "/>
	<g>
	<g>
		<text transform="matrix(1 0 0 1 91.8555 258.7212)" class="st1 st2">১</text>
	</g>
</g>
</a>
<a href="/constituency/175">
<polyline id="seat_175" class="st0" points="207.8,204.4 210.6,204.4 210.6,205.8 214.9,205.8 214.9,207.3 216.3,207.3 216.3,208.7 217.7,210.2 
	219.2,210.2 219.2,211.6 223.5,211.6 223.5,213 224.9,213 223.5,213 222.1,213 222.1,214.4 214.9,214.4 214.9,215.8 216.3,215.8 
	216.3,217.3 214.9,217.3 216.3,217.3 219.2,217.3 219.2,218.7 220.6,218.7 220.6,217.3 220.6,218.7 222.1,218.7 224.9,218.7 
	224.9,220.1 223.5,220.1 223.5,221.5 220.6,221.5 220.6,223 220.6,224.4 219.2,224.4 217.7,224.4 217.7,225.9 219.2,225.9 
	219.2,227.3 217.7,227.3 217.7,225.9 213.5,225.9 213.5,227.3 210.6,227.3 210.6,228.7 210.6,230.1 212,230.1 212,231.6 212,230.1 
	213.5,230.1 213.5,231.6 214.9,231.6 214.9,230.1 214.9,231.6 216.3,231.6 216.3,230.1 217.7,230.1 219.2,230.1 219.2,231.6 
	222.1,231.6 222.1,233 220.6,233 220.6,234.4 220.6,233 219.2,233 219.2,234.4 217.7,234.4 217.7,235.8 217.7,234.4 214.9,234.4 
	214.9,233 214.9,234.4 213.5,234.4 213.5,233 213.5,234.4 212,234.4 212,233 212,234.4 210.6,234.4 210.6,235.8 210.6,234.4 
	209.2,234.4 209.2,233 209.2,235.8 207.8,235.8 207.8,234.4 206.3,234.4 206.3,235.8 204.9,235.8 204.9,234.4 204.9,235.8 
	204.9,238.7 203.5,238.7 200.6,238.7 200.6,240.2 202.1,240.2 202.1,241.6 202.1,243 203.5,243 204.9,243 204.9,244.4 207.8,244.4 
	207.8,245.9 209.2,245.9 209.2,247.3 210.6,247.3 210.6,248.7 209.2,248.7 209.2,250.1 207.8,250.1 207.8,251.6 206.3,251.6 
	206.3,253 206.3,254.4 204.9,254.4 204.9,255.8 203.5,255.8 203.5,257.3 202.1,257.3 193.5,257.3 193.5,255.8 190.6,255.8 
	190.6,254.4 189.2,254.4 189.2,253 187.8,253 186.3,251.6 186.3,250.1 184.9,250.1 184.9,248.7 183.4,248.7 182,247.3 180.6,247.3 
	180.6,245.9 179.2,245.9 179.2,244.4 177.7,244.4 177.7,243 174.9,243 174.9,241.6 172,241.6 172,240.2 170.6,240.2 170.6,238.7 
	167.7,238.7 167.7,237.3 166.3,237.3 166.3,235.8 164.9,235.8 164.9,234.4 163.4,234.4 163.4,233 162,233 162,231.6 160.6,231.6 
	160.6,230.1 160.6,228.7 159.2,228.7 159.2,225.9 157.7,225.9 157.7,223 156.3,223 156.3,221.5 154.9,221.5 154.9,220.1 
	153.4,220.1 153.4,217.3 152,217.3 152,215.8 150.6,215.8 150.6,213 149.2,213 149.2,211.6 147.7,211.6 149.2,211.6 147.7,211.6 
	147.7,207.3 146.3,207.3 146.3,204.4 144.9,204.4 144.9,203 143.5,203 142,203 142,201.6 140.6,201.6 140.6,200.1 139.1,200.1 
	139.1,198.7 137.7,198.7 137.7,197.3 132,197.3 132,195.9 129.2,195.9 129.2,194.4 127.7,194.4 127.7,193 127.7,191.5 126.3,190.1 
	126.3,188.7 127.7,188.7 127.7,185.8 129.2,185.8 129.2,184.4 130.6,184.4 130.6,180.1 132,180.1 132,177.2 133.4,177.2 
	133.4,175.8 134.9,174.4 134.9,173 136.3,173 136.3,170.1 137.7,170.1 137.7,171.5 139.1,171.5 139.1,168.7 140.6,168.7 
	140.6,161.5 142,161.5 142,154.4 143.5,154.4 143.5,150.1 142,150.1 142,144.4 143.5,144.4 146.3,144.4 146.3,145.8 146.3,150.1 
	147.7,150.1 149.2,150.1 149.2,148.6 149.2,147.2 147.7,147.2 147.7,145.8 146.3,145.8 146.3,144.4 147.7,142.9 147.7,144.4 
	149.2,142.9 149.2,144.4 150.6,144.4 152,144.4 152,145.8 153.4,145.8 153.4,147.2 156.3,147.2 156.3,148.6 157.7,150.1 
	154.9,150.1 154.9,148.6 153.4,148.6 153.4,150.1 154.9,150.1 154.9,151.5 156.3,151.5 156.3,153 154.9,154.4 156.3,154.4 
	156.3,155.8 156.3,158.7 157.7,158.7 159.2,158.7 159.2,157.2 160.6,157.2 160.6,155.8 164.9,155.8 164.9,157.2 164.9,158.7 
	163.4,158.7 163.4,160.1 164.9,160.1 164.9,161.5 166.3,161.5 167.7,161.5 167.7,162.9 170.6,162.9 170.6,161.5 170.6,162.9 
	172,162.9 173.5,162.9 174.9,161.5 174.9,162.9 176.3,162.9 177.7,162.9 177.7,164.4 179.2,164.4 179.2,165.8 180.6,165.8 
	180.6,164.4 182,164.4 182,165.8 182,167.3 183.4,167.3 183.4,164.4 184.9,164.4 184.9,162.9 186.3,162.9 186.3,164.4 187.8,164.4 
	190.6,164.4 190.6,162.9 190.6,164.4 192,164.4 192,168.7 193.5,170.1 193.5,171.5 192,171.5 192,174.4 193.5,174.4 196.3,174.4 
	196.3,175.8 197.7,175.8 197.7,177.2 196.3,177.2 196.3,178.7 194.9,178.7 194.9,180.1 193.5,181.6 193.5,183 192,183 192,185.8 
	190.6,185.8 190.6,187.3 189.2,187.3 189.2,188.7 190.6,188.7 196.3,188.7 196.3,190.1 197.7,191.5 199.2,193 200.6,194.4 
	202.1,195.9 203.5,195.9 203.5,197.3 203.5,198.7 204.9,200.1 204.9,203 206.3,203 206.3,201.6 206.3,203 206.3,204.4 207.8,204.4 
	206.3,204.4 207.8,204.4 "/>
	<g>
		<text transform="matrix(1 0 0 1 154.1411 204.4366)" class="st1 st2">২</text>
	</g>
</a>
<a href="/constituency/176">
<polyline id="seat_176" class="st0" points="236.4,217.3 237.8,218.7 239.2,220.1 240.6,221.5 240.6,223 242.1,223 242.1,224.4 243.5,224.4 
	243.5,227.3 244.9,227.3 244.9,228.7 246.3,228.7 246.3,230.1 247.7,230.1 249.2,231.6 250.6,231.6 250.6,233 252.1,233 
	252.1,234.4 253.5,234.4 253.5,235.8 254.9,235.8 254.9,237.3 256.3,238.7 256.3,241.6 257.8,241.6 257.8,243 259.2,243 
	259.2,244.4 260.6,244.4 260.6,245.9 262,245.9 262,247.3 262,248.7 263.5,248.7 263.5,250.1 264.9,250.1 264.9,251.6 266.4,251.6 
	266.4,254.4 267.8,254.4 267.8,255.8 269.2,255.8 269.2,257.3 270.6,257.3 270.6,260.2 269.2,260.2 269.2,261.6 267.8,261.6 
	267.8,263 266.4,263 264.9,263 263.5,264.4 260.6,264.4 260.6,265.9 257.8,265.9 257.8,264.4 256.3,264.4 256.3,265.9 253.5,265.9 
	253.5,267.3 252.1,267.3 252.1,268.7 250.6,268.7 250.6,270.1 249.2,270.1 249.2,271.6 247.7,271.6 247.7,273 247.7,274.5 
	246.3,274.5 244.9,274.5 244.9,273 243.5,273 243.5,271.6 243.5,270.1 242.1,270.1 242.1,268.7 240.6,268.7 240.6,267.3 
	239.2,267.3 239.2,265.9 237.8,265.9 237.8,264.4 236.4,264.4 236.4,263 234.9,263 234.9,261.6 233.5,261.6 233.5,260.2 232,260.2 
	232,258.7 230.6,258.7 230.6,257.3 229.2,257.3 229.2,255.8 227.8,255.8 226.3,254.4 226.3,253 224.9,253 224.9,250.1 223.5,250.1 
	222.1,250.1 222.1,248.7 210.6,248.7 210.6,247.3 209.2,247.3 209.2,245.9 207.8,245.9 207.8,244.4 204.9,244.4 204.9,243 
	202.1,243 202.1,241.6 202.1,240.2 200.6,240.2 200.6,238.7 202.1,238.7 204.9,238.7 204.9,237.3 204.9,234.4 204.9,235.8 
	206.3,235.8 206.3,234.4 207.8,234.4 207.8,235.8 209.2,235.8 209.2,234.4 209.2,233 209.2,234.4 210.6,234.4 210.6,235.8 
	210.6,234.4 212,234.4 212,233 212,234.4 213.5,234.4 213.5,233 213.5,234.4 214.9,234.4 214.9,233 214.9,234.4 217.7,234.4 
	217.7,235.8 217.7,234.4 219.2,234.4 219.2,233 220.6,233 220.6,234.4 220.6,233 222.1,233 222.1,231.6 219.2,231.6 219.2,230.1 
	216.3,230.1 216.3,231.6 214.9,231.6 214.9,230.1 214.9,231.6 213.5,231.6 213.5,230.1 212,230.1 212,231.6 212,230.1 210.6,230.1 
	210.6,228.7 210.6,227.3 212,227.3 213.5,227.3 213.5,225.9 217.7,225.9 217.7,227.3 219.2,227.3 219.2,225.9 217.7,225.9 
	217.7,224.4 220.6,224.4 220.6,223 220.6,221.5 222.1,221.5 223.5,221.5 223.5,220.1 224.9,220.1 224.9,218.7 220.6,218.7 
	220.6,217.3 220.6,218.7 219.2,218.7 219.2,217.3 217.7,217.3 214.9,217.3 216.3,217.3 216.3,215.8 214.9,215.8 214.9,214.4 
	216.3,214.4 222.1,214.4 222.1,213 226.3,213 226.3,211.6 227.8,211.6 227.8,213 230.6,213 230.6,214.4 232,214.4 233.5,215.8 
	234.9,215.8 234.9,217.3 236.4,217.3 "/>
	<g>
		<text transform="matrix(1 0 0 1 235.6346 259.2524)" class="st1 st2">৩</text>
	</g>
</a>
<a href="/constituency/177">
<polyline id="seat_177" class="st0" points="253.5,225.9 263.5,225.9 263.5,227.3 264.9,227.3 264.9,228.7 263.5,228.7 263.5,230.1 262,230.1 
	262,231.6 262,233 260.6,233 259.2,233 259.2,234.4 259.2,237.3 257.8,237.3 257.8,238.7 256.3,238.7 254.9,237.3 254.9,235.8 
	253.5,235.8 253.5,234.4 252.1,234.4 252.1,233 250.6,233 250.6,231.6 249.2,231.6 247.7,230.1 246.3,230.1 246.3,228.7 
	244.9,228.7 244.9,227.3 243.5,227.3 243.5,225.9 243.5,224.4 242.1,224.4 242.1,223 240.6,223 240.6,220.1 242.1,220.1 
	243.5,220.1 243.5,218.7 246.3,218.7 244.9,217.3 244.9,215.8 243.5,215.8 243.5,213 244.9,213 244.9,214.4 246.3,214.4 
	246.3,215.8 247.7,215.8 247.7,217.3 249.2,217.3 249.2,218.7 250.6,218.7 249.2,218.7 250.6,218.7 252.1,218.7 252.1,220.1 
	252.1,223 253.5,223 253.5,224.4 254.9,224.4 254.9,225.9 253.5,225.9 "/>
	<g>
		<text transform="matrix(1 0 0 1 246.5674 228.4133)" class="st1 st3">৪</text>
	</g>
</a>
<a href="/constituency/178">
<polyline id="seat_178" class="st0" points="263.5,187.3 264.9,187.3 264.9,185.8 269.2,185.8 269.2,184.4 269.2,183 270.6,181.6 274.9,181.6 
	274.9,183 276.3,184.4 277.8,184.4 277.8,185.8 279.2,185.8 277.8,187.3 277.8,188.7 276.3,188.7 277.8,190.1 279.2,191.5 
	280.7,191.5 282.1,193 280.7,194.4 280.7,198.7 282.1,198.7 282.1,200.1 283.5,200.1 284.9,201.6 284.9,205.8 286.4,207.3 
	284.9,207.3 284.9,208.7 287.8,208.7 287.8,210.2 289.2,210.2 290.6,211.6 292.1,213 293.5,214.4 292.1,214.4 292.1,215.8 
	290.6,214.4 290.6,215.8 289.2,215.8 287.8,215.8 287.8,214.4 284.9,214.4 284.9,215.8 284.9,218.7 283.5,218.7 280.7,218.7 
	280.7,220.1 279.2,220.1 279.2,221.5 277.8,221.5 277.8,223 273.5,223 273.5,224.4 272.1,224.4 272.1,225.9 270.6,225.9 
	269.2,227.3 269.2,228.7 267.8,228.7 267.8,230.1 267.8,228.7 266.4,228.7 266.4,230.1 264.9,230.1 264.9,228.7 264.9,227.3 
	263.5,227.3 263.5,225.9 262,225.9 253.5,225.9 254.9,225.9 254.9,224.4 253.5,224.4 253.5,223 252.1,223 252.1,218.7 250.6,218.7 
	249.2,218.7 250.6,218.7 249.2,218.7 249.2,217.3 247.7,217.3 247.7,215.8 246.3,215.8 246.3,214.4 244.9,214.4 244.9,213 
	243.5,213 243.5,211.6 243.5,207.3 244.9,207.3 247.7,207.3 249.2,205.8 247.7,205.8 247.7,204.4 250.6,204.4 250.6,205.8 
	252.1,205.8 252.1,204.4 256.3,204.4 254.9,204.4 254.9,201.6 256.3,200.1 256.3,201.6 256.3,200.1 257.8,200.1 259.2,198.7 
	263.5,198.7 263.5,197.3 264.9,197.3 264.9,195.9 263.5,194.4 262,194.4 262,193 262,191.5 263.5,190.1 262,188.7 263.5,188.7 
	263.5,187.3 "/>
	<g>
		<g>
			<text transform="matrix(1 0 0 1 264.7559 212.2456)" class="st1 st3">৫</text>
		</g>
	</g>
</a>
<a href="/constituency/179">
<polyline id="seat_179" class="st0" points="236.4,217.3 234.9,217.3 234.9,215.8 233.5,215.8 232,214.4 232,213 233.5,213 234.9,213 234.9,207.3 
	234.9,208.7 232,208.7 232,207.3 232,205.8 230.6,205.8 230.6,204.4 232,204.4 234.9,204.4 236.4,205.8 244.9,205.8 244.9,207.3 
	243.5,207.3 243.5,208.7 243.5,213 244.9,213 243.5,213 243.5,214.4 243.5,215.8 244.9,215.8 244.9,217.3 246.3,218.7 243.5,218.7 
	243.5,220.1 240.6,220.1 240.6,221.5 239.2,220.1 237.8,218.7 236.4,217.3 "/>
	<g>
		<text transform="matrix(1 0 0 1 236.0283 215.9312)" class="st1 st3">৬</text>
	</g>
</a>
<a href="/constituency/180">
<polyline id="seat_180" class="st0" points="232,213 232,214.4 230.6,214.4 230.6,213 229.2,213 227.8,213 227.8,211.6 226.3,211.6 226.3,213 
	223.5,213 223.5,211.6 219.2,211.6 219.2,210.2 217.7,210.2 216.3,208.7 216.3,207.3 214.9,207.3 214.9,204.4 216.3,204.4 
	216.3,201.6 214.9,201.6 216.3,201.6 216.3,200.1 219.2,200.1 219.2,198.7 222.1,198.7 222.1,200.1 222.1,201.6 223.5,203 
	222.1,204.4 224.9,204.4 226.3,205.8 226.3,204.4 227.8,204.4 230.6,204.4 230.6,205.8 232,205.8 232,207.3 232,208.7 233.5,208.7 
	234.9,208.7 234.9,207.3 234.9,213 233.5,213 232,213 "/>
	<g>
		<text transform="matrix(1 0 0 1 218.3115 210.2163)" class="st1 st3">৭</text>
	</g>
</a>
<a href="/constituency/181">
<polyline id="seat_181" class="st0" points="226.3,204.4 226.3,205.8 224.9,204.4 222.1,204.4 223.5,203 222.1,201.6 222.1,200.1 222.1,197.3 
	223.5,195.9 223.5,194.4 224.9,194.4 224.9,188.7 224.9,190.1 226.3,191.5 227.8,191.5 227.8,190.1 230.6,190.1 230.6,191.5 
	232,191.5 232,190.1 234.9,190.1 234.9,188.7 239.2,188.7 240.6,190.1 243.5,190.1 243.5,191.5 243.5,204.4 244.9,204.4 
	244.9,205.8 243.5,205.8 236.4,205.8 234.9,204.4 226.3,204.4 "/>
	<g>
	<text transform="matrix(1 0 0 1 231.3184 200.4956)" class="st1 st3">৮</text>
</g>
</a>
<a href="/constituency/182">
<polyline id="seat_182" class="st0" points="262,193 262,194.4 263.5,194.4 264.9,195.9 264.9,197.3 263.5,197.3 263.5,198.7 262,198.7 
	259.2,198.7 257.8,200.1 256.3,200.1 256.3,201.6 256.3,200.1 254.9,201.6 254.9,204.4 256.3,204.4 252.1,204.4 252.1,205.8 
	250.6,205.8 250.6,204.4 247.7,204.4 247.7,205.8 249.2,205.8 247.7,207.3 244.9,207.3 244.9,205.8 244.9,204.4 243.5,204.4 
	243.5,190.1 242.1,190.1 240.6,190.1 239.2,188.7 237.8,188.7 237.8,187.3 242.1,187.3 243.5,185.8 243.5,184.4 244.9,184.4 
	244.9,183 246.3,183 246.3,181.6 247.7,181.6 247.7,180.1 249.2,180.1 250.6,180.1 250.6,178.7 252.1,178.7 252.1,180.1 
	253.5,180.1 253.5,181.6 254.9,181.6 253.5,181.6 253.5,183 254.9,183 259.2,183 259.2,181.6 259.2,180.1 259.2,181.6 257.8,181.6 
	257.8,180.1 257.8,178.7 259.2,178.7 259.2,177.2 260.6,177.2 260.6,175.8 262,174.4 263.5,174.4 263.5,173 262,173 262,171.5 
	263.5,170.1 263.5,168.7 264.9,168.7 269.2,168.7 269.2,170.1 270.6,171.5 272.1,171.5 273.5,173 274.9,174.4 274.9,181.6 
	273.5,181.6 270.6,181.6 269.2,183 269.2,185.8 267.8,185.8 264.9,185.8 264.9,187.3 263.5,187.3 263.5,188.7 262,188.7 
	263.5,190.1 262,191.5 262,193 "/>
	<g>
		<g>
			<text transform="matrix(1 0 0 1 249.998 197.8765)" class="st1 st3">৯</text>
		</g>
	</g>
</a>
<a href="/constituency/183">
<polyline id="seat_183" class="st0" points="250.6,178.7 250.6,180.1 249.2,180.1 247.7,180.1 247.7,181.6 246.3,181.6 246.3,183 244.9,183 
	244.9,184.4 243.5,184.4 243.5,185.8 242.1,187.3 237.8,187.3 237.8,188.7 236.4,188.7 236.4,187.3 237.8,187.3 237.8,185.8 
	237.8,184.4 236.4,184.4 236.4,183 234.9,183 234.9,181.6 233.5,181.6 234.9,181.6 234.9,180.1 234.9,178.7 236.4,178.7 
	236.4,177.2 237.8,177.2 237.8,175.8 239.2,175.8 239.2,174.4 239.2,173 240.6,173 240.6,167.3 242.1,167.3 243.5,167.3 
	243.5,165.8 243.5,161.5 242.1,160.1 242.1,155.8 240.6,154.4 240.6,151.5 240.6,153 243.5,153 244.9,151.5 246.3,151.5 
	246.3,150.1 246.3,148.6 247.7,148.6 247.7,150.1 247.7,148.6 249.2,148.6 249.2,147.2 250.6,147.2 250.6,145.8 250.6,144.4 
	252.1,144.4 252.1,141.5 253.5,141.5 254.9,141.5 256.3,140.1 256.3,141.5 257.8,141.5 262,141.5 263.5,142.9 266.4,142.9 
	267.8,144.4 277.8,144.4 277.8,145.8 277.8,148.6 276.3,148.6 276.3,154.4 274.9,154.4 274.9,162.9 273.5,162.9 273.5,164.4 
	272.1,164.4 272.1,165.8 270.6,165.8 270.6,167.3 269.2,167.3 267.8,168.7 269.2,168.7 267.8,168.7 263.5,168.7 263.5,170.1 
	262,171.5 262,173 263.5,173 263.5,174.4 262,174.4 260.6,175.8 260.6,177.2 259.2,177.2 259.2,178.7 257.8,178.7 257.8,181.6 
	259.2,181.6 259.2,180.1 259.2,181.6 259.2,183 257.8,183 253.5,183 253.5,181.6 254.9,181.6 253.5,181.6 253.5,180.1 252.1,180.1 
	252.1,178.7 250.6,178.7 "/>
	<g>
		<g>
			<text transform="matrix(1 0 0 1 245.6445 168.8491)" class="st1 st3">১০</text>
		</g>
	</g>
</a>
<a href="/constituency/184">
<polyline id="seat_184" class="st0" points="233.5,181.6 234.9,181.6 234.9,183 236.4,183 236.4,184.4 237.8,184.4 237.8,185.8 237.8,187.3 
	236.4,187.3 236.4,188.7 234.9,188.7 234.9,190.1 233.5,190.1 232,190.1 232,191.5 230.6,191.5 230.6,190.1 227.8,190.1 
	227.8,191.5 226.3,191.5 224.9,190.1 224.9,188.7 224.9,190.1 223.5,190.1 223.5,188.7 220.6,188.7 220.6,187.3 219.2,187.3 
	219.2,185.8 219.2,183 217.7,183 217.7,184.4 216.3,184.4 216.3,183 214.9,183 213.5,183 213.5,181.6 212,180.1 212,177.2 
	210.6,177.2 210.6,174.4 212,174.4 213.5,173 216.3,173 217.7,171.5 217.7,174.4 219.2,174.4 219.2,178.7 220.6,178.7 222.1,178.7 
	222.1,177.2 222.1,175.8 223.5,175.8 223.5,173 224.9,173 226.3,171.5 227.8,171.5 227.8,173 227.8,174.4 229.2,174.4 230.6,174.4 
	232,175.8 236.4,175.8 236.4,174.4 236.4,175.8 237.8,175.8 237.8,177.2 236.4,177.2 236.4,178.7 234.9,178.7 234.9,181.6 
	233.5,181.6 "/>
	<g>
		<text transform="matrix(1 0 0 1 221.4219 185.2778)" class="st1 st3">১১</text>
	</g>
</a>
<a href="/constituency/185">
<polyline id="seat_185" class="st0" points="224.9,194.4 223.5,194.4 223.5,195.9 222.1,197.3 222.1,198.7 220.6,198.7 219.2,198.7 219.2,200.1 
	216.3,200.1 216.3,201.6 214.9,201.6 216.3,201.6 216.3,204.4 214.9,204.4 214.9,205.8 213.5,205.8 210.6,205.8 210.6,204.4 
	206.3,204.4 207.8,204.4 206.3,204.4 206.3,203 206.3,201.6 206.3,203 204.9,203 204.9,201.6 204.9,200.1 203.5,198.7 203.5,195.9 
	202.1,195.9 200.6,194.4 199.2,193 199.2,191.5 200.6,191.5 202.1,191.5 202.1,190.1 203.5,190.1 203.5,191.5 204.9,191.5 
	206.3,190.1 207.8,190.1 207.8,191.5 209.2,191.5 209.2,193 212,193 212,191.5 213.5,191.5 212,190.1 212,188.7 210.6,188.7 
	210.6,187.3 212,185.8 213.5,185.8 213.5,184.4 214.9,184.4 214.9,183 216.3,183 216.3,184.4 217.7,184.4 217.7,183 219.2,183 
	219.2,184.4 219.2,187.3 220.6,187.3 220.6,188.7 222.1,188.7 223.5,188.7 223.5,190.1 224.9,190.1 224.9,191.5 224.9,194.4 "/>
	<g>
		<text transform="matrix(1 0 0 1 205.8428 200.6675)" class="st1 st3">১২</text>
	</g>
</a>
<a href="/constituency/187">
<polyline id="seat_187" class="st0" points="202.1,148.6 204.9,148.6 204.9,150.1 206.3,150.1 206.3,151.5 206.3,150.1 207.8,150.1 207.8,148.6 
	209.2,148.6 209.2,150.1 210.6,150.1 210.6,154.4 209.2,154.4 206.3,155.8 204.9,157.2 204.9,158.7 206.3,158.7 206.3,160.1 
	207.8,160.1 207.8,162.9 206.3,162.9 206.3,167.3 207.8,167.3 207.8,168.7 209.2,168.7 209.2,170.1 207.8,171.5 204.9,171.5 
	204.9,173 202.1,173 202.1,171.5 200.6,171.5 200.6,173 199.2,173 199.2,174.4 196.3,174.4 196.3,175.8 196.3,174.4 194.9,174.4 
	192,174.4 192,173 192,171.5 193.5,171.5 193.5,170.1 192,168.7 192,167.3 193.5,167.3 193.5,165.8 194.9,164.4 194.9,158.7 
	196.3,158.7 196.3,154.4 194.9,153 194.9,147.2 196.3,147.2 194.9,147.2 194.9,145.8 194.9,144.4 196.3,144.4 196.3,142.9 
	197.7,142.9 197.7,141.5 199.2,141.5 199.2,142.9 200.6,142.9 200.6,141.5 200.6,142.9 202.1,142.9 202.1,144.4 200.6,144.4 
	200.6,145.8 202.1,145.8 202.1,147.2 200.6,147.2 202.1,147.2 202.1,148.6 "/>
	<g>
		<text transform="matrix(1 0 0 1 195.2139 167.1089)" class="st1 st3">১৪</text>
	</g>
</a>
<a href="/constituency/188">
<polyline id="seat_188" class="st0" points="209.2,168.7 207.8,168.7 207.8,167.3 206.3,167.3 206.3,165.8 206.3,162.9 207.8,162.9 207.8,160.1 
	206.3,160.1 206.3,158.7 204.9,158.7 204.9,157.2 206.3,155.8 209.2,154.4 210.6,154.4 210.6,153 212,153 213.5,154.4 214.9,154.4 
	214.9,153 216.3,151.5 217.7,150.1 219.2,150.1 219.2,151.5 220.6,151.5 220.6,153 222.1,153 222.1,170.1 223.5,170.1 223.5,168.7 
	224.9,168.7 224.9,173 223.5,173 223.5,175.8 222.1,175.8 222.1,178.7 220.6,178.7 219.2,178.7 219.2,177.2 219.2,174.4 
	217.7,174.4 217.7,170.1 216.3,168.7 214.9,168.7 214.9,170.1 212,170.1 212,171.5 209.2,171.5 209.2,170.1 209.2,168.7 "/>
	<g>
	<text transform="matrix(1 0 0 1 210.9912 165.9292)" class="st1 st3">১৫</text>
</g>
</a>
<a href="/constituency/189">
<polyline id="seat_189" class="st0" points="213.5,154.4 212,153 210.6,153 210.6,151.5 210.6,150.1 209.2,150.1 209.2,148.6 207.8,148.6 
	207.8,150.1 206.3,150.1 206.3,151.5 206.3,150.1 204.9,150.1 204.9,148.6 202.1,148.6 202.1,147.2 202.1,145.8 203.5,145.8 
	203.5,141.5 202.1,141.5 202.1,140.1 203.5,140.1 203.5,138.7 202.1,138.7 203.5,138.7 203.5,137.2 203.5,131.5 202.1,130.1 
	203.5,130.1 203.5,128.7 207.8,128.7 207.8,130.1 207.8,131.5 209.2,131.5 209.2,130.1 209.2,131.5 209.2,133 210.6,134.4 
	209.2,134.4 209.2,135.8 210.6,135.8 210.6,137.2 213.5,137.2 213.5,138.7 214.9,138.7 214.9,140.1 216.3,140.1 216.3,141.5 
	216.3,144.4 217.7,144.4 217.7,142.9 217.7,144.4 219.2,144.4 219.2,145.8 219.2,151.5 219.2,150.1 217.7,150.1 216.3,151.5 
	214.9,153 214.9,154.4 213.5,154.4 "/>
	<g>
	<text transform="matrix(1 0 0 1 204.9482 147.2388)" class="st1 st3">১৬</text>
</g>
</a>
<a href="/constituency/190">
<polyline id="seat_190" class="st0" points="227.8,171.5 226.3,171.5 224.9,173 224.9,168.7 223.5,168.7 223.5,170.1 222.1,170.1 222.1,153 
	220.6,153 220.6,151.5 219.2,151.5 219.2,144.4 219.2,142.9 219.2,137.2 217.7,137.2 217.7,134.4 219.2,134.4 219.2,131.5 
	220.6,131.5 224.9,131.5 224.9,133 224.9,128.7 222.1,125.8 220.6,123 222.1,123 224.9,120.1 226.3,120.1 227.8,121.5 229.2,123 
	230.6,124.4 232,124.4 232,125.8 233.5,127.2 234.9,130.1 236.4,130.1 236.4,131.5 237.8,133 239.2,134.4 237.8,135.8 236.4,135.8 
	236.4,137.2 236.4,150.1 237.8,150.1 237.8,151.5 236.4,151.5 236.4,153 237.8,153 237.8,154.4 239.2,153 240.6,153 240.6,151.5 
	240.6,154.4 242.1,155.8 242.1,160.1 243.5,161.5 243.5,167.3 242.1,167.3 240.6,167.3 240.6,168.7 240.6,173 239.2,173 
	239.2,175.8 237.8,175.8 236.4,175.8 236.4,174.4 236.4,175.8 234.9,175.8 232,175.8 230.6,174.4 227.8,174.4 227.8,173 
	227.8,171.5 "/>
	<g>
	<text transform="matrix(1 0 0 1 224.9263 164.3755)" class="st1 st3">১৭</text>
</g>
</a>
<a href="/constituency/191">
<polyline id="seat_191" class="st0" points="267.8,124.4 267.8,123 269.2,123 270.6,123 270.6,124.4 270.6,127.2 269.2,127.2 269.2,133 270.6,133 
	270.6,134.4 272.1,134.4 272.1,137.2 273.5,137.2 273.5,138.7 274.9,138.7 276.3,140.1 276.3,141.5 277.8,141.5 277.8,144.4 
	276.3,144.4 273.5,144.4 272.1,144.4 267.8,144.4 266.4,142.9 263.5,142.9 262,141.5 256.3,141.5 256.3,140.1 254.9,141.5 
	252.1,141.5 252.1,142.9 252.1,144.4 250.6,144.4 250.6,147.2 249.2,147.2 249.2,148.6 247.7,148.6 247.7,150.1 247.7,148.6 
	246.3,148.6 246.3,150.1 246.3,151.5 244.9,151.5 243.5,153 240.6,153 240.6,151.5 240.6,153 239.2,153 237.8,154.4 237.8,153 
	236.4,153 236.4,151.5 237.8,151.5 237.8,150.1 236.4,150.1 236.4,135.8 237.8,135.8 239.2,134.4 237.8,133 236.4,131.5 
	236.4,130.1 234.9,130.1 233.5,127.2 232,125.8 232,124.4 230.6,124.4 229.2,123 227.8,121.5 226.3,120.1 224.9,120.1 222.1,123 
	220.6,123 222.1,125.8 224.9,128.7 224.9,133 224.9,131.5 219.2,131.5 219.2,133 219.2,134.4 217.7,134.4 217.7,137.2 219.2,137.2 
	219.2,144.4 217.7,144.4 217.7,142.9 217.7,144.4 216.3,144.4 216.3,142.9 216.3,140.1 214.9,140.1 214.9,138.7 213.5,138.7 
	213.5,137.2 212,137.2 210.6,137.2 210.6,135.8 209.2,135.8 209.2,134.4 210.6,134.4 209.2,133 209.2,130.1 209.2,131.5 
	207.8,131.5 207.8,130.1 207.8,128.7 206.3,128.7 203.5,128.7 203.5,130.1 202.1,130.1 203.5,131.5 203.5,138.7 202.1,138.7 
	203.5,138.7 203.5,140.1 202.1,140.1 202.1,141.5 203.5,141.5 203.5,142.9 203.5,145.8 202.1,145.8 202.1,147.2 200.6,147.2 
	202.1,147.2 202.1,145.8 200.6,145.8 200.6,144.4 202.1,144.4 202.1,142.9 200.6,142.9 200.6,141.5 200.6,142.9 199.2,142.9 
	199.2,141.5 197.7,141.5 197.7,142.9 196.3,142.9 196.3,141.5 194.9,141.5 194.9,140.1 193.5,140.1 193.5,138.7 194.9,137.2 
	193.5,137.2 193.5,135.8 194.9,134.4 196.3,134.4 196.3,133 194.9,131.5 193.5,130.1 193.5,128.7 194.9,128.7 194.9,127.2 
	196.3,127.2 196.3,125.8 197.7,125.8 199.2,125.8 199.2,127.2 200.6,127.2 200.6,125.8 200.6,123 202.1,121.5 202.1,115.8 
	203.5,114.4 203.5,112.9 202.1,111.5 202.1,107.2 203.5,107.2 203.5,105.8 202.1,105.8 202.1,104.4 203.5,104.4 204.9,104.4 
	204.9,103 206.3,103 206.3,101.5 207.8,101.5 209.2,100.1 214.9,100.1 214.9,98.6 216.3,98.6 217.7,97.2 219.2,97.2 219.2,98.6 
	220.6,98.6 220.6,100.1 223.5,100.1 223.5,101.5 223.5,103 224.9,103 224.9,108.7 226.3,108.7 229.2,108.7 229.2,107.2 236.4,107.2 
	236.4,105.8 237.8,105.8 239.2,104.4 240.6,104.4 240.6,103 242.1,103 242.1,101.5 243.5,101.5 244.9,100.1 246.3,98.6 247.7,98.6 
	249.2,97.2 254.9,97.2 254.9,98.6 256.3,98.6 256.3,100.1 257.8,100.1 257.8,98.6 262,98.6 262,100.1 262,101.5 263.5,103 
	262,104.4 262,105.8 263.5,105.8 263.5,107.2 262,108.7 262,110.1 263.5,110.1 264.9,111.5 264.9,112.9 266.4,112.9 266.4,114.4 
	267.8,114.4 267.8,115.8 269.2,117.3 269.2,120.1 267.8,120.1 267.8,124.4 "/>
	<g>
	<g>
		<text transform="matrix(1 0 0 1 244.8867 125.3364)" class="st1 st3">১৮</text>
	</g>
</g>
</a>
<a href="/constituency/192">
<polyline id="seat_192" class="st0" points="193.5,138.7 193.5,140.1 194.9,140.1 194.9,141.5 196.3,141.5 196.3,144.4 194.9,144.4 194.9,147.2 
	196.3,147.2 194.9,147.2 194.9,148.6 194.9,153 196.3,154.4 196.3,158.7 194.9,158.7 194.9,164.4 193.5,165.8 193.5,167.3 
	192,167.3 192,165.8 192,164.4 190.6,164.4 190.6,162.9 190.6,164.4 186.3,164.4 186.3,162.9 184.9,162.9 184.9,164.4 183.4,164.4 
	183.4,165.8 183.4,167.3 182,167.3 182,164.4 180.6,164.4 180.6,165.8 179.2,165.8 179.2,164.4 177.7,164.4 177.7,162.9 
	176.3,162.9 174.9,162.9 174.9,161.5 173.5,162.9 170.6,162.9 170.6,161.5 170.6,162.9 169.1,162.9 167.7,162.9 167.7,161.5 
	164.9,161.5 164.9,160.1 163.4,160.1 163.4,158.7 164.9,158.7 164.9,157.2 164.9,155.8 163.4,155.8 160.6,155.8 160.6,157.2 
	159.2,157.2 159.2,158.7 156.3,158.7 156.3,157.2 156.3,154.4 154.9,154.4 156.3,153 156.3,151.5 154.9,151.5 154.9,150.1 
	153.4,150.1 153.4,148.6 154.9,148.6 154.9,150.1 156.3,150.1 157.7,150.1 156.3,148.6 156.3,147.2 154.9,147.2 153.4,147.2 
	153.4,145.8 152,145.8 152,144.4 149.2,144.4 149.2,142.9 147.7,144.4 147.7,142.9 146.3,144.4 146.3,145.8 147.7,145.8 
	147.7,147.2 149.2,147.2 149.2,150.1 147.7,150.1 146.3,150.1 146.3,148.6 146.3,144.4 144.9,144.4 142,144.4 142,142.9 142,131.5 
	140.6,131.5 140.6,130.1 139.1,130.1 137.7,130.1 137.7,128.7 137.7,124.4 136.3,124.4 136.3,115.8 134.9,115.8 134.9,114.4 
	133.4,114.4 133.4,112.9 134.9,112.9 134.9,107.2 133.4,107.2 132,107.2 132,105.8 132,101.5 133.4,101.5 133.4,98.6 132,98.6 
	132,97.2 130.6,97.2 130.6,94.4 132,94.4 132,88.7 130.6,87.2 130.6,80.1 129.2,80.1 130.6,80.1 130.6,78.6 132,78.6 132,77.2 
	132,75.8 133.4,75.8 133.4,70 132,70 132,68.6 130.6,68.6 130.6,67.2 129.2,67.2 127.7,67.2 127.7,65.8 124.8,65.8 124.8,64.3 
	123.4,64.3 123.4,62.9 122,62.9 122,61.5 120.6,61.5 120.6,60.1 119.1,60.1 119.1,58.7 117.7,57.2 116.3,57.2 116.3,55.8 
	114.9,55.8 114.9,54.3 114.9,52.9 116.3,52.9 116.3,51.5 114.9,51.5 114.9,50.1 113.4,50.1 110.5,50.1 110.5,48.6 110.5,44.4 
	109.1,44.4 109.1,42.9 107.7,42.9 107.7,35.8 106.3,35.8 106.3,34.3 107.7,34.3 106.3,34.3 104.8,32.9 106.3,32.9 106.3,31.5 
	107.7,31.5 107.7,30.1 107.7,28.6 109.1,28.6 110.5,28.6 110.5,27.2 112,27.2 112,28.6 112,31.5 113.4,31.5 114.9,31.5 114.9,30.1 
	117.7,30.1 117.7,31.5 117.7,32.9 119.1,32.9 120.6,32.9 120.6,31.5 120.6,30.1 122,30.1 123.4,31.5 123.4,32.9 124.8,32.9 
	126.3,32.9 126.3,31.5 127.7,31.5 127.7,30.1 139.1,30.1 139.1,28.6 139.1,22.9 137.7,22.9 137.7,21.5 139.1,21.5 139.1,17.2 
	139.1,18.6 137.7,18.6 137.7,17.2 137.7,15.8 139.1,15.8 142,15.8 142,17.2 143.5,17.2 143.5,18.6 146.3,18.6 146.3,20 144.9,20 
	144.9,21.5 144.9,24.4 146.3,24.4 146.3,25.8 147.7,25.8 149.2,25.8 149.2,27.2 149.2,30.1 147.7,30.1 147.7,31.5 146.3,31.5 
	146.3,35.8 144.9,35.8 146.3,35.8 146.3,37.2 147.7,37.2 147.7,38.6 147.7,40 146.3,40 143.5,40 143.5,41.5 144.9,41.5 144.9,42.9 
	144.9,44.4 146.3,44.4 146.3,45.8 147.7,45.8 147.7,48.6 149.2,48.6 149.2,51.5 150.6,51.5 150.6,52.9 149.2,52.9 150.6,54.3 
	153.4,54.3 153.4,55.8 154.9,55.8 154.9,57.2 154.9,58.7 156.3,58.7 157.7,58.7 157.7,57.2 160.6,57.2 160.6,55.8 162,55.8 
	162,57.2 164.9,57.2 164.9,58.7 170.6,58.7 170.6,60.1 172,60.1 172,61.5 172,67.2 173.5,67.2 174.9,67.2 174.9,65.8 176.3,65.8 
	176.3,67.2 179.2,67.2 179.2,65.8 183.4,65.8 183.4,64.3 182,64.3 182,62.9 182,61.5 183.4,61.5 183.4,62.9 184.9,62.9 189.2,62.9 
	189.2,64.3 189.2,65.8 190.6,65.8 190.6,67.2 192,67.2 194.9,67.2 194.9,65.8 194.9,64.3 193.5,64.3 192,64.3 192,62.9 194.9,62.9 
	194.9,64.3 196.3,64.3 196.3,65.8 197.7,65.8 197.7,67.2 197.7,75.8 199.2,75.8 199.2,91.5 197.7,91.5 197.7,97.2 199.2,97.2 
	199.2,101.5 200.6,101.5 200.6,107.2 202.1,107.2 202.1,111.5 203.5,112.9 203.5,114.4 202.1,115.8 202.1,121.5 200.6,123 
	200.6,127.2 199.2,127.2 199.2,125.8 197.7,125.8 196.3,125.8 196.3,127.2 194.9,127.2 194.9,128.7 193.5,128.7 193.5,130.1 
	194.9,131.5 196.3,133 196.3,134.4 194.9,134.4 193.5,135.8 193.5,137.2 194.9,137.2 193.5,138.7 "/>
	<g>
		<g>
			<text transform="matrix(1 0 0 1 144.1411 109.2374)" class="st1 st2">১৯</text>
		</g>
	</g>
</a>
<a href="/constituency/193">
<polyline id="seat_193" class="st0" points="130.6,80.1 129.2,80.1 130.6,80.1 130.6,87.2 132,88.7 132,94.4 130.6,94.4 130.6,97.2 132,97.2 
	132,98.6 133.4,98.6 133.4,101.5 132,101.5 132,107.2 133.4,107.2 134.9,107.2 134.9,108.7 134.9,112.9 133.4,112.9 133.4,114.4 
	134.9,114.4 134.9,115.8 136.3,115.8 136.3,124.4 137.7,124.4 137.7,130.1 139.1,130.1 140.6,130.1 140.6,131.5 142,131.5 142,133 
	142,134.4 140.6,135.8 140.6,137.2 139.1,137.2 139.1,138.7 137.7,138.7 134.9,138.7 134.9,137.2 132,137.2 132,135.8 129.2,135.8 
	129.2,134.4 126.3,134.4 126.3,133 124.8,133 124.8,134.4 122,134.4 122,135.8 119.1,135.8 119.1,134.4 117.7,134.4 117.7,135.8 
	117.7,140.1 116.3,140.1 114.9,140.1 114.9,141.5 114.9,144.4 113.4,144.4 112,144.4 112,145.8 109.1,145.8 109.1,147.2 
	107.7,147.2 107.7,145.8 104.8,145.8 104.8,144.4 102,144.4 102,145.8 102,147.2 100.6,147.2 100.6,141.5 99.1,141.5 97.7,141.5 
	97.7,140.1 96.3,140.1 96.3,138.7 90.5,138.7 90.5,140.1 90.5,141.5 89.1,141.5 89.1,133 87.7,133 87.7,130.1 86.3,130.1 
	86.3,128.7 84.8,128.7 84.8,127.2 83.4,127.2 83.4,124.4 82,124.4 82,123 80.6,123 80.6,121.5 79.2,120.1 79.2,118.7 77.7,118.7 
	76.3,118.7 76.3,117.3 76.3,115.8 74.8,115.8 74.8,114.4 73.4,114.4 73.4,112.9 72,112.9 70.6,112.9 70.6,111.5 70.6,110.1 
	69.1,110.1 69.1,105.8 67.7,105.8 69.1,105.8 69.1,104.4 67.7,103 66.3,103 66.3,101.5 66.3,100.1 64.9,100.1 64.9,98.6 63.4,98.6 
	63.4,97.2 62,97.2 60.5,97.2 60.5,95.8 59.1,95.8 57.7,97.2 57.7,94.4 56.3,94.4 56.3,92.9 54.8,92.9 54.8,91.5 53.4,91.5 
	53.4,90.1 52,90.1 50.6,90.1 49.1,91.5 49.1,92.9 47.7,92.9 46.2,92.9 46.2,94.4 44.8,94.4 44.8,92.9 43.4,92.9 43.4,91.5 
	43.4,90.1 42,90.1 42,87.2 43.4,87.2 43.4,84.3 44.8,84.3 46.2,84.3 46.2,82.9 47.7,82.9 47.7,81.5 46.2,81.5 46.2,80.1 44.8,80.1 
	44.8,81.5 43.4,81.5 43.4,80.1 42,80.1 42,78.6 42,74.4 43.4,74.4 42,74.4 43.4,74.4 43.4,70 42,70 42,67.2 40.5,67.2 40.5,65.8 
	42,64.3 44.8,64.3 44.8,62.9 46.2,62.9 46.2,61.5 46.2,60.1 44.8,60.1 40.5,60.1 40.5,61.5 36.3,61.5 36.3,60.1 31.9,60.1 
	31.9,58.7 30.5,58.7 30.5,57.2 29.1,57.2 29.1,55.8 29.1,54.3 27.7,54.3 26.2,54.3 26.2,52.9 30.5,52.9 30.5,51.5 27.7,51.5 
	27.7,50.1 26.2,50.1 26.2,48.6 26.2,47.2 27.7,47.2 27.7,45.8 29.1,45.8 29.1,44.4 30.5,44.4 31.9,44.4 31.9,42.9 33.4,42.9 
	33.4,41.5 33.4,40 34.8,40 34.8,38.6 36.3,38.6 36.3,35.8 34.8,35.8 33.4,35.8 33.4,37.2 31.9,37.2 31.9,38.6 30.5,38.6 29.1,37.2 
	29.1,34.3 30.5,34.3 29.1,34.3 29.1,32.9 22,32.9 22,34.3 20.5,34.3 20.5,32.9 19.1,32.9 17.6,31.5 17.6,30.1 19.1,28.6 17.6,28.6 
	17.6,27.2 16.2,27.2 16.2,28.6 16.2,30.1 14.8,30.1 14.8,28.6 13.4,28.6 11.9,28.6 11.9,30.1 13.4,30.1 13.4,31.5 10.5,31.5 
	10.5,30.1 9.1,28.6 9.1,25.8 7.7,25.8 9.1,25.8 9.1,24.4 10.5,24.4 10.5,25.8 13.4,25.8 13.4,24.4 14.8,24.4 14.8,22.9 14.8,20 
	16.2,20 16.2,18.6 14.8,18.6 14.8,17.2 13.4,17.2 10.5,17.2 10.5,15.8 10.5,14.3 11.9,14.3 11.9,10.1 13.4,10.1 13.4,8.6 14.8,8.6 
	14.8,14.3 16.2,14.3 20.5,14.3 20.5,15.8 20.5,17.2 19.1,17.2 19.1,18.6 17.6,18.6 16.2,18.6 16.2,20 16.2,21.5 17.6,21.5 
	17.6,22.9 19.1,22.9 22,22.9 22,21.5 23.4,21.5 24.8,20 27.7,20 27.7,18.6 34.8,18.6 34.8,17.2 40.5,17.2 40.5,18.6 40.5,17.2 
	42,17.2 42,12.9 43.4,12.9 43.4,15.8 44.8,15.8 46.2,15.8 46.2,14.3 46.2,11.5 47.7,11.5 52,11.5 52,12.9 52,14.3 53.4,14.3 
	56.3,14.3 56.3,15.8 56.3,17.2 57.7,17.2 57.7,20 59.1,20 59.1,21.5 60.5,21.5 60.5,22.9 62,22.9 62,24.4 63.4,24.4 64.9,24.4 
	66.3,25.8 66.3,20 67.7,20 73.4,20 72,20 72,18.6 73.4,18.6 74.8,18.6 74.8,17.2 76.3,17.2 76.3,15.8 87.7,15.8 87.7,17.2 87.7,20 
	89.1,20 89.1,21.5 89.1,20 89.1,21.5 90.5,21.5 90.5,22.9 92,22.9 93.4,22.9 93.4,24.4 94.9,24.4 94.9,25.8 94.9,28.6 96.3,28.6 
	97.7,28.6 97.7,30.1 97.7,32.9 99.1,32.9 99.1,35.8 100.6,35.8 103.4,35.8 103.4,34.3 103.4,35.8 104.8,35.8 106.3,35.8 106.3,34.3 
	106.3,35.8 107.7,35.8 107.7,42.9 109.1,42.9 109.1,44.4 110.5,44.4 110.5,50.1 112,50.1 114.9,50.1 114.9,51.5 116.3,51.5 
	116.3,52.9 114.9,52.9 114.9,54.3 114.9,55.8 116.3,55.8 116.3,57.2 117.7,57.2 119.1,58.7 119.1,60.1 120.6,60.1 120.6,61.5 
	122,61.5 122,62.9 123.4,62.9 123.4,64.3 124.8,64.3 124.8,65.8 126.3,65.8 127.7,65.8 127.7,67.2 130.6,67.2 130.6,68.6 132,68.6 
	132,70 133.4,70 133.4,71.5 133.4,75.8 132,75.8 132,78.6 130.6,78.6 130.6,80.1 "/>
	<g>
	<g>
		<text transform="matrix(1 0 0 1 75.2236 82.2466)" class="st1 st2">২০</text>
	</g>
</g>
</a>
<a href="/constituency/186">
<polyline id="seat_186" class="st0" points="210.6,188.7 212,188.7 212,190.1 213.5,191.5 212,191.5 212,193 209.2,193 209.2,191.5 207.8,191.5 
	207.8,190.1 206.3,190.1 204.9,191.5 203.5,191.5 203.5,190.1 202.1,190.1 202.1,191.5 199.2,191.5 199.2,193 197.7,191.5 
	196.3,190.1 196.3,188.7 194.9,188.7 189.2,188.7 189.2,187.3 190.6,187.3 190.6,185.8 192,185.8 192,184.4 192,183 193.5,183 
	193.5,181.6 194.9,180.1 194.9,178.7 196.3,178.7 196.3,177.2 197.7,177.2 197.7,175.8 196.3,175.8 196.3,174.4 197.7,174.4 
	199.2,174.4 199.2,173 200.6,173 200.6,171.5 202.1,171.5 202.1,173 204.9,173 204.9,171.5 207.8,171.5 209.2,170.1 209.2,171.5 
	210.6,171.5 212,171.5 212,170.1 214.9,170.1 214.9,168.7 216.3,168.7 217.7,170.1 217.7,171.5 216.3,173 213.5,173 212,174.4 
	210.6,174.4 210.6,175.8 210.6,177.2 212,177.2 212,180.1 213.5,181.6 213.5,183 214.9,183 214.9,184.4 213.5,184.4 213.5,185.8 
	212,185.8 210.6,187.3 210.6,188.7 "/>
	<g>
	<text transform="matrix(1 0 0 1 197.1836 184.9731)" class="st1 st3">১৩</text>
</g>
</a>

</svg>
